<mxfile host="app.diagrams.net" modified="2022-12-01T18:38:18.670Z" agent="5.0 (Windows NT 10.0; Win64; x64) AppleWebKit/537.36 (KHTML, like Gecko) Chrome/107.0.0.0 Safari/537.36" version="20.6.0" etag="FLQ2bhanXFPZKVRqgFxc" type="github">
  <diagram id="6btrxuk5Bw3YaOaVgUhs" name="Página-1">
    <mxGraphModel dx="2062" dy="762" grid="1" gridSize="10" guides="1" tooltips="1" connect="1" arrows="1" fold="1" page="1" pageScale="1" pageWidth="827" pageHeight="1169" math="0" shadow="0">
      <root>
        <mxCell id="0" />
        <mxCell id="1" parent="0" />
        <mxCell id="TqaYydU98lNWVhY8bgGf-1" value="Inicio" style="rounded=1;whiteSpace=wrap;html=1;" vertex="1" parent="1">
          <mxGeometry x="310" y="40" width="120" height="60" as="geometry" />
        </mxCell>
        <mxCell id="TqaYydU98lNWVhY8bgGf-3" value="" style="endArrow=classic;html=1;rounded=0;exitX=0.5;exitY=1;exitDx=0;exitDy=0;entryX=0.5;entryY=0;entryDx=0;entryDy=0;" edge="1" parent="1" source="TqaYydU98lNWVhY8bgGf-1">
          <mxGeometry width="50" height="50" relative="1" as="geometry">
            <mxPoint x="380" y="410" as="sourcePoint" />
            <mxPoint x="370" y="150" as="targetPoint" />
          </mxGeometry>
        </mxCell>
        <mxCell id="TqaYydU98lNWVhY8bgGf-4" value="Leia(valor1, valor2)" style="rounded=0;whiteSpace=wrap;html=1;" vertex="1" parent="1">
          <mxGeometry x="310" y="300" width="120" height="60" as="geometry" />
        </mxCell>
        <mxCell id="TqaYydU98lNWVhY8bgGf-5" value="" style="endArrow=classic;html=1;rounded=0;exitX=0.5;exitY=1;exitDx=0;exitDy=0;" edge="1" parent="1" target="TqaYydU98lNWVhY8bgGf-4">
          <mxGeometry width="50" height="50" relative="1" as="geometry">
            <mxPoint x="370" y="210" as="sourcePoint" />
            <mxPoint x="430" y="350" as="targetPoint" />
          </mxGeometry>
        </mxCell>
        <mxCell id="TqaYydU98lNWVhY8bgGf-7" value="" style="endArrow=classic;html=1;rounded=0;exitX=0.5;exitY=1;exitDx=0;exitDy=0;entryX=0.5;entryY=0;entryDx=0;entryDy=0;" edge="1" parent="1">
          <mxGeometry width="50" height="50" relative="1" as="geometry">
            <mxPoint x="370" y="360" as="sourcePoint" />
            <mxPoint x="370" y="410" as="targetPoint" />
          </mxGeometry>
        </mxCell>
        <mxCell id="TqaYydU98lNWVhY8bgGf-8" value="Valor1 &amp;gt; valor 2" style="rhombus;whiteSpace=wrap;html=1;" vertex="1" parent="1">
          <mxGeometry x="266.25" y="410" width="207.5" height="120" as="geometry" />
        </mxCell>
        <mxCell id="TqaYydU98lNWVhY8bgGf-12" value="" style="endArrow=classic;html=1;rounded=0;exitX=1;exitY=0.5;exitDx=0;exitDy=0;" edge="1" parent="1" source="TqaYydU98lNWVhY8bgGf-8">
          <mxGeometry width="50" height="50" relative="1" as="geometry">
            <mxPoint x="380" y="580" as="sourcePoint" />
            <mxPoint x="580" y="470" as="targetPoint" />
            <Array as="points">
              <mxPoint x="560" y="470" />
            </Array>
          </mxGeometry>
        </mxCell>
        <mxCell id="TqaYydU98lNWVhY8bgGf-14" value="Sim" style="text;html=1;align=center;verticalAlign=middle;resizable=0;points=[];autosize=1;strokeColor=none;fillColor=none;" vertex="1" parent="1">
          <mxGeometry x="510" y="440" width="40" height="30" as="geometry" />
        </mxCell>
        <mxCell id="TqaYydU98lNWVhY8bgGf-18" value="Olá, Vamos verificiar se um valor é divisor de outro. Digite dois valores" style="shape=document;whiteSpace=wrap;html=1;boundedLbl=1;" vertex="1" parent="1">
          <mxGeometry x="310" y="150" width="120" height="130" as="geometry" />
        </mxCell>
        <mxCell id="TqaYydU98lNWVhY8bgGf-19" value="resto = valor1 % valor2" style="rounded=0;whiteSpace=wrap;html=1;" vertex="1" parent="1">
          <mxGeometry x="580" y="440" width="170" height="60" as="geometry" />
        </mxCell>
        <mxCell id="TqaYydU98lNWVhY8bgGf-20" value="" style="endArrow=classic;html=1;rounded=0;exitX=1;exitY=0.5;exitDx=0;exitDy=0;" edge="1" parent="1" source="TqaYydU98lNWVhY8bgGf-19">
          <mxGeometry width="50" height="50" relative="1" as="geometry">
            <mxPoint x="540" y="450" as="sourcePoint" />
            <mxPoint x="910" y="600" as="targetPoint" />
            <Array as="points">
              <mxPoint x="830" y="470" />
              <mxPoint x="830" y="600" />
            </Array>
          </mxGeometry>
        </mxCell>
        <mxCell id="TqaYydU98lNWVhY8bgGf-21" value="" style="endArrow=classic;html=1;rounded=0;exitX=0.5;exitY=1;exitDx=0;exitDy=0;" edge="1" parent="1" source="TqaYydU98lNWVhY8bgGf-8">
          <mxGeometry width="50" height="50" relative="1" as="geometry">
            <mxPoint x="540" y="550" as="sourcePoint" />
            <mxPoint x="370" y="680" as="targetPoint" />
          </mxGeometry>
        </mxCell>
        <mxCell id="TqaYydU98lNWVhY8bgGf-22" value="Não" style="text;html=1;align=center;verticalAlign=middle;resizable=0;points=[];autosize=1;strokeColor=none;fillColor=none;" vertex="1" parent="1">
          <mxGeometry x="305" y="585" width="50" height="30" as="geometry" />
        </mxCell>
        <mxCell id="TqaYydU98lNWVhY8bgGf-23" value="Valor2 &amp;gt; valor 1" style="rhombus;whiteSpace=wrap;html=1;" vertex="1" parent="1">
          <mxGeometry x="266.25" y="680" width="207.5" height="120" as="geometry" />
        </mxCell>
        <mxCell id="TqaYydU98lNWVhY8bgGf-24" value="" style="endArrow=classic;html=1;rounded=0;exitX=1;exitY=0.5;exitDx=0;exitDy=0;" edge="1" parent="1" source="TqaYydU98lNWVhY8bgGf-23">
          <mxGeometry width="50" height="50" relative="1" as="geometry">
            <mxPoint x="540" y="550" as="sourcePoint" />
            <mxPoint x="560" y="740" as="targetPoint" />
          </mxGeometry>
        </mxCell>
        <mxCell id="TqaYydU98lNWVhY8bgGf-25" value="resto = valor2% valor1" style="rounded=0;whiteSpace=wrap;html=1;" vertex="1" parent="1">
          <mxGeometry x="560" y="710" width="170" height="60" as="geometry" />
        </mxCell>
        <mxCell id="TqaYydU98lNWVhY8bgGf-26" value="" style="endArrow=classic;html=1;rounded=0;exitX=1;exitY=0.5;exitDx=0;exitDy=0;" edge="1" parent="1" source="TqaYydU98lNWVhY8bgGf-25">
          <mxGeometry width="50" height="50" relative="1" as="geometry">
            <mxPoint x="540" y="550" as="sourcePoint" />
            <mxPoint x="910" y="600" as="targetPoint" />
            <Array as="points">
              <mxPoint x="830" y="740" />
              <mxPoint x="830" y="600" />
            </Array>
          </mxGeometry>
        </mxCell>
        <mxCell id="TqaYydU98lNWVhY8bgGf-27" value="Resto == 0" style="rhombus;whiteSpace=wrap;html=1;" vertex="1" parent="1">
          <mxGeometry x="910" y="560" width="120" height="80" as="geometry" />
        </mxCell>
        <mxCell id="TqaYydU98lNWVhY8bgGf-28" value="" style="endArrow=classic;html=1;rounded=0;exitX=0.5;exitY=1;exitDx=0;exitDy=0;" edge="1" parent="1" source="TqaYydU98lNWVhY8bgGf-27">
          <mxGeometry width="50" height="50" relative="1" as="geometry">
            <mxPoint x="540" y="650" as="sourcePoint" />
            <mxPoint x="970" y="690" as="targetPoint" />
          </mxGeometry>
        </mxCell>
        <mxCell id="TqaYydU98lNWVhY8bgGf-29" value="Sim" style="text;html=1;align=center;verticalAlign=middle;resizable=0;points=[];autosize=1;strokeColor=none;fillColor=none;" vertex="1" parent="1">
          <mxGeometry x="920" y="645" width="40" height="30" as="geometry" />
        </mxCell>
        <mxCell id="TqaYydU98lNWVhY8bgGf-30" value="Não" style="text;html=1;align=center;verticalAlign=middle;resizable=0;points=[];autosize=1;strokeColor=none;fillColor=none;" vertex="1" parent="1">
          <mxGeometry x="1045" y="545" width="50" height="30" as="geometry" />
        </mxCell>
        <mxCell id="TqaYydU98lNWVhY8bgGf-31" value="" style="endArrow=classic;html=1;rounded=0;exitX=1;exitY=0.5;exitDx=0;exitDy=0;entryX=0.5;entryY=0;entryDx=0;entryDy=0;" edge="1" parent="1" source="TqaYydU98lNWVhY8bgGf-27" target="TqaYydU98lNWVhY8bgGf-35">
          <mxGeometry width="50" height="50" relative="1" as="geometry">
            <mxPoint x="540" y="650" as="sourcePoint" />
            <mxPoint x="1240" y="690" as="targetPoint" />
            <Array as="points">
              <mxPoint x="1240" y="600" />
            </Array>
          </mxGeometry>
        </mxCell>
        <mxCell id="TqaYydU98lNWVhY8bgGf-32" value="É Divisor" style="shape=document;whiteSpace=wrap;html=1;boundedLbl=1;" vertex="1" parent="1">
          <mxGeometry x="910" y="690" width="120" height="80" as="geometry" />
        </mxCell>
        <mxCell id="TqaYydU98lNWVhY8bgGf-33" value="" style="endArrow=classic;html=1;rounded=0;exitX=0.5;exitY=0.9;exitDx=0;exitDy=0;exitPerimeter=0;" edge="1" parent="1" source="TqaYydU98lNWVhY8bgGf-32">
          <mxGeometry width="50" height="50" relative="1" as="geometry">
            <mxPoint x="540" y="850" as="sourcePoint" />
            <mxPoint x="1240" y="760" as="targetPoint" />
            <Array as="points">
              <mxPoint x="970" y="800" />
              <mxPoint x="1240" y="800" />
            </Array>
          </mxGeometry>
        </mxCell>
        <mxCell id="TqaYydU98lNWVhY8bgGf-35" value="FIM" style="rounded=1;whiteSpace=wrap;html=1;" vertex="1" parent="1">
          <mxGeometry x="1181" y="700" width="120" height="60" as="geometry" />
        </mxCell>
      </root>
    </mxGraphModel>
  </diagram>
</mxfile>
